Coordinates
version=1
nRows=27
nColumns=38
inDegrees=no

Units are S.I. units (second, meters, Newtons, ...)
If the header above contains a line with 'inDegrees', this indicates whether rotational values are in degrees (yes) or radians (no).

endheader
time	pelvis_tilt	pelvis_list	pelvis_rotation	pelvis_tx	pelvis_ty	pelvis_tz	hip_flexion_r	hip_adduction_r	hip_rotation_r	knee_angle_r	ankle_angle_r	subtalar_angle_r	mtp_angle_r	hip_flexion_l	hip_adduction_l	hip_rotation_l	knee_angle_l	ankle_angle_l	subtalar_angle_l	mtp_angle_l	lumbar_extension	lumbar_bending	lumbar_rotation	arm_flex_r	arm_add_r	arm_rot_r	elbow_flex_r	pro_sup_r	wrist_flex_r	wrist_dev_r	arm_flex_l	arm_add_l	arm_rot_l	elbow_flex_l	pro_sup_l	wrist_flex_l	wrist_dev_l
0.58	-0.425503	1.35713	-1.02255	1.08715	0.873699	0.929935	0.171734	0.0481956	-0.238209	0.437777	-0.25422	0	0	-0.496702	-0.19753	-0.33173	0.459299	-0.267725	0	0	-0.330378	0.182895	-0.208521	-0.0596119	-0.0816451	-0.570144	0.581065	0.662426	0	0	0.00642045	-0.253083	0.00941391	0.907294	1.50955	0	0
0.59	-0.450506	1.35318	-1.0042	1.08505	0.861236	0.931247	0.165396	0.0581103	-0.235113	0.451004	-0.255679	0	0	-0.480612	-0.212104	-0.323967	0.511221	-0.300955	0	0	-0.329189	0.188584	-0.201321	-0.0606238	-0.0809469	-0.57724	0.577691	0.665651	0	0	-0.00149844	-0.249595	0.0117284	0.893769	1.51108	0	0
0.6	-0.482609	1.34967	-0.9798	1.0829	0.848929	0.932362	0.157954	0.0698143	-0.233514	0.458294	-0.256832	0	0	-0.457804	-0.23135	-0.32396	0.573962	-0.338992	0	0	-0.326859	0.195399	-0.192982	-0.0640818	-0.080702	-0.581891	0.577548	0.674217	0	0	-0.00979972	-0.246678	0.0158225	0.880957	1.51191	0	0
0.61	-0.51582	1.3462	-0.954434	1.08075	0.8368	0.933299	0.148347	0.082023	-0.234643	0.460978	-0.256742	0	0	-0.431279	-0.252307	-0.325009	0.641067	-0.378191	0	0	-0.324409	0.202572	-0.1847	-0.0685872	-0.0800918	-0.586533	0.580763	0.682009	0	0	-0.0187235	-0.244445	0.0206682	0.869682	1.5124	0	0
0.62	-0.548593	1.34255	-0.929487	1.07864	0.824802	0.933975	0.13601	0.0945814	-0.237266	0.459556	-0.253619	0	0	-0.401763	-0.276689	-0.333464	0.712862	-0.420311	0	0	-0.321845	0.209968	-0.1761	-0.0745557	-0.0790162	-0.591869	0.587886	0.687892	0	0	-0.0282844	-0.242148	0.0251942	0.860267	1.51039	0	0
0.63	-0.58612	1.33841	-0.900669	1.07655	0.81271	0.934198	0.121716	0.108762	-0.239236	0.455468	-0.24696	0	0	-0.370391	-0.310749	-0.363328	0.791203	-0.4643	0	0	-0.318361	0.218787	-0.165744	-0.08425	-0.0774084	-0.598588	0.601594	0.692337	0	0	-0.0386465	-0.240343	0.0320944	0.853348	1.50602	0	0
0.64	-0.604528	1.33509	-0.889938	1.07433	0.801107	0.934938	0.104882	0.11889	-0.240125	0.451078	-0.239946	0	0	-0.34241	-0.326221	-0.355432	0.854534	-0.48251	0	0	-0.317706	0.222862	-0.156758	-0.0901934	-0.0758754	-0.602535	0.609304	0.694195	0	0	-0.0473092	-0.239989	0.0393936	0.846262	1.50172	0	0
0.65	-0.6164	1.33241	-0.885821	1.07211	0.789775	0.935814	0.0878077	0.12764	-0.239284	0.447037	-0.231884	0	0	-0.313959	-0.338066	-0.344489	0.916243	-0.493691	0	0	-0.318035	0.225034	-0.147375	-0.0952177	-0.0746857	-0.605266	0.61558	0.695051	0	0	-0.0552483	-0.239498	0.0460943	0.839543	1.49635	0	0
0.66	-0.58063	1.33449	-0.925001	1.06986	0.779948	0.938428	0.0682549	0.124178	-0.236589	0.440682	-0.225197	0	0	-0.291062	-0.288891	-0.224251	0.943989	-0.463578	0	0	-0.325366	0.21402	-0.141604	-0.0874174	-0.0727372	-0.608613	0.602107	0.695221	0	0	-0.054489	-0.242579	0.0571321	0.824878	1.49324	0	0
0.67	-0.576071	1.33211	-0.936052	1.06795	0.769269	0.939816	0.0491435	0.129011	-0.234493	0.434403	-0.2197	0	0	-0.262128	-0.29369	-0.213298	1.00448	-0.460602	0	0	-0.328965	0.212219	-0.134165	-0.0876847	-0.0719793	-0.611671	0.602335	0.696448	0	0	-0.0607887	-0.242733	0.0630391	0.817154	1.49258	0	0
0.68	-0.564582	1.32988	-0.952573	1.06626	0.758856	0.941454	0.0285045	0.131965	-0.231351	0.424951	-0.21594	0	0	-0.233327	-0.296009	-0.201927	1.06059	-0.448873	0	0	-0.33396	0.209122	-0.127656	-0.086948	-0.0709923	-0.615818	0.601303	0.696584	0	0	-0.065783	-0.243663	0.0700259	0.80982	1.49092	0	0
0.69	-0.549386	1.32776	-0.971384	1.06467	0.748603	0.943221	0.00657582	0.133969	-0.22648	0.412333	-0.21482	0	0	-0.204811	-0.296364	-0.190023	1.11138	-0.415271	0	0	-0.339265	0.205292	-0.122572	-0.0851612	-0.0697234	-0.621011	0.59857	0.698312	0	0	-0.0696249	-0.244779	0.077435	0.803208	1.481	0	0
0.7	-0.529222	1.3253	-0.994563	1.0631	0.738445	0.945085	-0.0169359	0.13496	-0.220259	0.398567	-0.214545	0	0	-0.17801	-0.295081	-0.179673	1.15573	-0.372772	0	0	-0.345241	0.200191	-0.11886	-0.0820344	-0.0683855	-0.625491	0.593563	0.700752	0	0	-0.0749998	-0.246547	0.0832421	0.798413	1.47258	0	0
0.71	-0.509493	1.32348	-1.01886	1.06131	0.728186	0.94687	-0.040582	0.135736	-0.211465	0.384023	-0.213801	0	0	-0.152107	-0.292747	-0.172976	1.19442	-0.329055	0	0	-0.350094	0.193884	-0.114465	-0.0784211	-0.0670117	-0.629917	0.586795	0.703056	0	0	-0.0815072	-0.248547	0.088237	0.794027	1.46755	0	0
0.72	-0.490467	1.32202	-1.04335	1.05943	0.717999	0.948548	-0.0637322	0.13616	-0.202632	0.369925	-0.212427	0	0	-0.126456	-0.289126	-0.167043	1.22778	-0.292909	0	0	-0.354512	0.187045	-0.109749	-0.0750942	-0.0654322	-0.634213	0.580812	0.704222	0	0	-0.088366	-0.250475	0.0922392	0.790223	1.46512	0	0
0.73	-0.472411	1.32087	-1.06788	1.0575	0.707898	0.950094	-0.0862879	0.136283	-0.193824	0.356304	-0.210703	0	0	-0.101309	-0.284382	-0.161937	1.25488	-0.264133	0	0	-0.358623	0.17981	-0.104496	-0.0727758	-0.0639582	-0.63682	0.57613	0.706072	0	0	-0.0963887	-0.253322	0.0964196	0.787613	1.4672	0	0
0.74	-0.454263	1.31974	-1.09367	1.05552	0.697796	0.951552	-0.108872	0.135947	-0.185133	0.34277	-0.209067	0	0	-0.0774882	-0.278592	-0.158198	1.27501	-0.239621	0	0	-0.362692	0.172088	-0.0985861	-0.0706217	-0.0622028	-0.640053	0.571867	0.708048	0	0	-0.105609	-0.256572	0.100279	0.785893	1.47262	0	0
0.75	-0.433261	1.31873	-1.12227	1.05365	0.687799	0.952934	-0.13109	0.134081	-0.178495	0.330323	-0.207295	0	0	-0.0544622	-0.271327	-0.155479	1.2886	-0.219536	0	0	-0.367042	0.164049	-0.0930028	-0.0669247	-0.0596855	-0.646912	0.566696	0.707734	0	0	-0.113438	-0.258058	0.101307	0.784032	1.47303	0	0
0.76	-0.40958	1.31781	-1.15317	1.05192	0.677959	0.954197	-0.152479	0.130656	-0.17406	0.319643	-0.205069	0	0	-0.0322047	-0.262612	-0.153107	1.29624	-0.201745	0	0	-0.371708	0.155818	-0.0879228	-0.061413	-0.0569256	-0.655759	0.559646	0.706343	0	0	-0.119633	-0.259468	0.1039	0.781732	1.4699	0	0
0.77	-0.383635	1.31643	-1.18665	1.05027	0.668363	0.955374	-0.172956	0.125848	-0.169906	0.310802	-0.20313	0	0	-0.011573	-0.253162	-0.152716	1.298	-0.18586	0	0	-0.377383	0.147137	-0.0827746	-0.0551554	-0.0544553	-0.662842	0.553091	0.705696	0	0	-0.125691	-0.262565	0.10945	0.780383	1.46785	0	0
0.78	-0.358598	1.31537	-1.22004	1.04854	0.658756	0.956406	-0.192238	0.120528	-0.165209	0.302144	-0.201916	0	0	0.00783772	-0.244146	-0.155625	1.29405	-0.173065	0	0	-0.382364	0.137979	-0.076987	-0.0503207	-0.052255	-0.668011	0.549172	0.705518	0	0	-0.131354	-0.265495	0.114736	0.778849	1.46482	0	0
0.79	-0.333218	1.3132	-1.25372	1.04686	0.649245	0.957406	-0.212208	0.115057	-0.160026	0.293222	-0.201164	0	0	0.024916	-0.234805	-0.158945	1.28475	-0.162387	0	0	-0.388547	0.128816	-0.0710522	-0.0487168	-0.0511593	-0.668479	0.549383	0.70967	0	0	-0.136321	-0.268212	0.119501	0.777851	1.46044	0	0
0.8	-0.310349	1.31116	-1.28482	1.04515	0.639611	0.958228	-0.231702	0.109837	-0.154996	0.284649	-0.200008	0	0	0.0409165	-0.226411	-0.164501	1.27034	-0.151229	0	0	-0.393871	0.119864	-0.0651005	-0.050955	-0.0514405	-0.662679	0.552415	0.719219	0	0	-0.141524	-0.270587	0.123147	0.7769	1.45487	0	0
0.81	-0.290215	1.30958	-1.31293	1.04348	0.629866	0.95882	-0.251008	0.105002	-0.149947	0.275258	-0.198395	0	0	0.0562541	-0.219046	-0.172235	1.2509	-0.139768	0	0	-0.397899	0.11142	-0.0596901	-0.0532915	-0.0518139	-0.657076	0.556098	0.726455	0	0	-0.146565	-0.272515	0.126322	0.775573	1.44873	0	0
0.82	-0.271652	1.30633	-1.33868	1.042	0.620277	0.959307	-0.27219	0.100744	-0.14412	0.26518	-0.196164	0	0	0.0688974	-0.212287	-0.180197	1.22651	-0.131463	0	0	-0.403848	0.104231	-0.0547863	-0.0536395	-0.0518757	-0.654685	0.559208	0.729723	0	0	-0.150803	-0.274524	0.130098	0.775188	1.44314	0	0
0.83	-0.255624	1.30083	-1.36213	1.04057	0.610714	0.959691	-0.296057	0.0972225	-0.136687	0.25444	-0.193654	0	0	0.0773548	-0.207022	-0.190813	1.19673	-0.124628	0	0	-0.412118	0.0981073	-0.0493539	-0.0499237	-0.0509444	-0.658753	0.558601	0.726964	0	0	-0.155259	-0.277644	0.135625	0.776338	1.44028	0	0
0.84	-0.241321	1.29475	-1.38177	1.0394	0.60113	0.959888	-0.320593	0.0942489	-0.131793	0.243509	-0.191098	0	0	0.0842675	-0.201549	-0.200192	1.16193	-0.120646	0	0	-0.420827	0.0933427	-0.0454088	-0.0431858	-0.0495601	-0.6663	0.554805	0.720393	0	0	-0.159269	-0.280308	0.140068	0.777619	1.4369	0	0
